<mxfile host="65bd71144e">
    <diagram id="pIaEtrtLPv3HG8r1JEND" name="Page-1">
        <mxGraphModel dx="965" dy="582" grid="1" gridSize="10" guides="1" tooltips="1" connect="1" arrows="1" fold="1" page="1" pageScale="1" pageWidth="850" pageHeight="1100" math="0" shadow="0">
            <root>
                <mxCell id="0"/>
                <mxCell id="1" parent="0"/>
                <mxCell id="2" value="" style="rounded=0;whiteSpace=wrap;html=1;" parent="1" vertex="1">
                    <mxGeometry x="80" y="80" width="760" height="420" as="geometry"/>
                </mxCell>
                <mxCell id="3" value="Triangle Types" style="rounded=0;whiteSpace=wrap;html=1;" parent="1" vertex="1">
                    <mxGeometry x="80" y="80" width="760" height="40" as="geometry"/>
                </mxCell>
                <mxCell id="4" value="Side a..." style="shape=partialRectangle;whiteSpace=wrap;html=1;top=0;left=0;fillColor=none;align=left;" parent="1" vertex="1">
                    <mxGeometry x="110" y="190" width="120" height="20" as="geometry"/>
                </mxCell>
                <mxCell id="6" value="CHECK" style="labelPosition=center;verticalLabelPosition=middle;align=center;html=1;shape=mxgraph.basic.button;dx=10;" parent="1" vertex="1">
                    <mxGeometry x="110" y="310" width="100" height="40" as="geometry"/>
                </mxCell>
                <mxCell id="7" value="This program can distinguish triangle types based off of three side lengths. Please insert the information below..." style="text;html=1;strokeColor=none;fillColor=none;align=left;verticalAlign=middle;whiteSpace=wrap;rounded=0;" vertex="1" parent="1">
                    <mxGeometry x="110" y="140" width="450" height="30" as="geometry"/>
                </mxCell>
                <mxCell id="8" value="Side b..." style="shape=partialRectangle;whiteSpace=wrap;html=1;top=0;left=0;fillColor=none;align=left;" vertex="1" parent="1">
                    <mxGeometry x="110" y="220" width="120" height="20" as="geometry"/>
                </mxCell>
                <mxCell id="9" value="Side c..." style="shape=partialRectangle;whiteSpace=wrap;html=1;top=0;left=0;fillColor=none;align=left;" vertex="1" parent="1">
                    <mxGeometry x="110" y="260" width="120" height="10" as="geometry"/>
                </mxCell>
                <mxCell id="17" value="Types of Triangles Image" style="shape=umlActor;verticalLabelPosition=bottom;verticalAlign=top;html=1;outlineConnect=0;" vertex="1" parent="1">
                    <mxGeometry x="620" y="160" width="130" height="120" as="geometry"/>
                </mxCell>
                <mxCell id="22" value="Triangle type will be displayed here" style="text;html=1;strokeColor=none;fillColor=none;align=left;verticalAlign=middle;whiteSpace=wrap;rounded=0;" vertex="1" parent="1">
                    <mxGeometry x="100" y="380" width="450" height="30" as="geometry"/>
                </mxCell>
            </root>
        </mxGraphModel>
    </diagram>
</mxfile>